<svg width="172" height="161" viewBox="0 0 172 161" fill="none" xmlns="http://www.w3.org/2000/svg">
<path fill-rule="evenodd" clip-rule="evenodd" d="M159.406 70.1215C159.466 69.2206 159.35 68.3251 159.065 67.4184C158.164 64.5256 156.901 62.7569 155.299 62.1025C153.691 61.3684 152.067 60.9557 150.434 60.8478C149.685 60.7927 148.854 60.7999 147.955 60.8762C146.012 61.008 144.218 61.2004 142.54 61.4401C140.951 61.6009 139.837 61.7817 139.199 61.9262C138.931 61.9706 138.669 61.9986 138.467 61.9739C137.983 61.9306 137.729 61.7498 137.679 61.4015C137.62 61.2619 137.588 61.1524 137.598 61.0795C137.606 60.8708 137.717 60.7424 137.929 60.6942L138.581 60.3245C140.715 59.442 142.92 58.7621 145.23 58.2983C147.54 57.8346 149.803 57.2943 152.048 56.7075C153.947 56.2109 155.268 55.3821 156.042 54.1948C156.883 52.9384 157.335 51.8316 157.398 50.8744C157.448 50.0464 157.344 49.2139 157.055 48.3635C156.342 46.6651 155.085 45.4001 153.295 44.5918C151.499 43.704 149.717 43.2073 147.931 43.095C144.03 42.8314 140.334 42.9604 136.851 43.4653C133.445 43.9244 129.846 44.8063 126.026 46.1372C124.129 46.7697 122.156 48.3923 120.112 50.9887C118.145 53.5392 116.251 56.6204 114.419 60.2091C112.587 63.7978 110.882 67.6889 109.285 71.836C107.68 75.9996 106.339 80.0392 105.26 83.9547C104.169 87.8072 103.485 90.7083 103.212 92.6979C103.006 94.6183 102.881 95.9164 102.836 96.592C102.688 98.652 102.796 100.277 103.119 101.468C104.435 105.418 106.806 108.391 110.251 110.434C111.355 111.27 112.659 111.899 114.15 112.354C115.636 112.73 117.271 112.973 119.049 113.102C121.656 113.28 124.421 113.118 127.337 112.632C130.253 112.146 133.105 111.441 135.845 110.536C138.596 109.559 141.186 108.362 143.638 106.935C146.067 105.517 148.07 103.965 149.64 102.293C151.203 100.541 152.172 99.0669 152.518 97.8401C152.882 96.6199 153.074 95.773 153.11 95.3061C153.217 93.8654 152.892 92.4415 152.167 91.0081C151.322 89.1595 149.774 87.8527 147.474 87.0672C145.193 86.2322 142.818 85.7246 140.347 85.5443C138.979 85.4483 137.641 85.422 136.325 85.4821C135.088 85.5361 133.968 85.6373 133.009 85.7662L132.711 85.7408L132.204 85.7074C132.062 85.6301 131.974 85.4207 131.94 85.0792L131.948 84.8705C131.957 84.6618 132.067 84.5333 132.279 84.4852C132.492 84.437 132.741 84.346 133.02 84.2288C136.309 83.4904 139.585 82.7852 142.864 82.1197C146.222 81.4481 149.381 80.3676 152.388 78.8585C153.598 78.2542 154.683 77.5794 155.633 76.8109C156.643 75.9898 157.478 75.078 158.092 74.095C158.705 73.1119 159.073 72.2597 159.19 71.5945C159.328 70.8797 159.388 70.403 159.406 70.1215ZM70.6037 48.1348L70.5872 48.128C71.6124 51.6115 70.796 54.9789 69.6253 58.3172C67.2508 63.6118 65.2801 72.6372 64.8609 78.8075C64.2168 88.1242 67.2582 88.6532 71.024 88.9191C74.7964 89.1684 77.869 89.0548 78.5063 79.7547C78.9359 73.5115 78.2017 64.1716 76.5155 58.6256C75.948 56.0037 75.6171 53.6519 76.3348 51.0923C76.8422 49.6612 77.445 48.3268 78.1463 47.129C79.2509 45.1323 80.6239 43.6113 82.2883 42.5564C83.2174 41.9335 84.1915 41.4833 85.171 41.2087C86.161 40.8613 87.0738 40.6559 87.8995 40.5691C88.7981 40.4927 89.5968 40.472 90.2725 40.5167L92.0179 40.6321C95.0856 41.1911 97.6124 42.3195 99.6245 44.0472C101.647 45.7021 103.223 47.6951 104.379 50.0562C105.529 52.3377 106.257 54.7553 106.573 57.3323C106.945 59.9131 107.05 62.346 106.901 64.6943L106.835 65.6118C106.543 68.8272 106.001 72.2297 105.203 75.8358C104.472 79.3728 103.479 82.8417 102.211 86.2754C100.954 89.6363 99.3805 92.8292 97.5227 95.8676C95.6649 98.906 93.4886 101.544 90.9937 103.783C88.4989 106.022 85.6697 107.757 82.4731 108.977C79.3035 110.13 75.7282 110.578 71.7538 110.304C67.7793 110.03 64.1972 109.126 60.9841 107.602C57.7874 106.084 54.9554 104.098 52.5044 101.652C50.1263 99.2156 48.1158 96.3513 46.4826 93.0821C44.8495 89.813 43.6126 86.2816 42.7651 82.5045C42.3556 80.4868 42.0126 77.9759 41.7294 74.9882C41.4499 71.9443 41.3486 69.455 41.4189 67.5369L41.6736 63.9401C41.8701 61.052 42.243 58.0625 42.8058 54.9384C43.4249 51.8181 44.3834 48.9521 45.6746 46.357C47.0327 43.6927 48.7611 41.5845 50.8569 39.9925C53.0256 38.411 55.688 37.7444 58.8411 37.9528C60.9011 38.1003 62.8737 38.8867 64.7753 40.3187C66.6806 41.6944 68.1506 43.2393 69.2018 44.9601C69.7654 45.8456 70.2382 46.9061 70.6037 48.1348Z" fill="#3849FF"/>
<path d="M15.6479 81.7543L25.5791 92.8527L35.5104 103.951L35.4937 103.97C34.7153 104.663 33.8588 105.254 32.9243 105.743C32.2668 106.088 31.5703 106.383 30.8515 106.607C29.1168 107.165 27.2692 107.353 25.3979 107.168C23.5267 106.983 21.6862 106.439 19.9666 105.547C18.2471 104.655 16.6864 103.448 15.396 101.993C14.0877 100.538 13.0686 98.8507 12.3644 97.0537C11.678 95.2557 11.3243 93.3471 11.348 91.4682C11.3717 89.5893 11.756 87.759 12.509 86.1019C12.8222 85.4026 13.1743 84.7544 13.5989 84.1195C14.1701 83.2607 14.8527 82.4664 15.6312 81.7733L15.6479 81.7543Z" fill="#3849FF"/>
<path d="M16.4224 81.2773C17.2843 81.6159 21.5148 83.4749 27.713 90.4119C33.9289 97.3479 35.7416 102.239 36.0554 103.238C36.0989 103.361 36.0523 103.471 35.9678 103.548L35.5107 103.952L35.494 103.971C34.7156 104.664 33.8591 105.255 32.9246 105.744C32.9246 105.744 32.9246 105.744 32.9235 105.726C32.1048 104.097 28.6842 97.538 24.7004 93.0887C20.7555 88.6905 15.0884 85.0454 13.5992 84.1208C13.5992 84.1208 13.5814 84.1219 13.5803 84.1041C14.1515 83.2453 14.8341 82.451 15.6126 81.7579L15.6293 81.7389L16.103 81.3155C16.2076 81.2731 16.3133 81.2485 16.4224 81.2773Z" fill="#3849FF"/>
<path d="M88.7405 65.5153C93.4008 65.8343 97.4864 61.5976 97.8659 56.0525C98.2455 50.5073 94.7752 45.7535 90.115 45.4345C85.4547 45.1155 81.3691 49.3522 80.9895 54.8973C80.61 60.4425 84.0802 65.1963 88.7405 65.5153Z" fill="white"/>
<path d="M85.7648 65.6787C88.8717 65.8913 91.5992 63.0111 91.857 59.2455C92.1147 55.4799 89.8051 52.2549 86.6982 52.0423C83.5914 51.8296 80.8638 54.7098 80.6061 58.4754C80.3483 62.241 82.658 65.466 85.7648 65.6787Z" fill="#3849FF"/>
<path d="M56.6208 63.3083C61.2811 63.6272 65.3667 59.3906 65.7463 53.8454C66.1258 48.3003 62.6556 43.5465 57.9953 43.2275C53.335 42.9085 49.2494 47.1451 48.8699 52.6903C48.4903 58.2354 51.9606 62.9893 56.6208 63.3083Z" fill="white"/>
<path d="M53.8933 63.6225C57.0001 63.8352 59.7277 60.955 59.9854 57.1894C60.2432 53.4238 57.9335 50.1988 54.8266 49.9861C51.7198 49.7735 48.9922 52.6537 48.7345 56.4193C48.4767 60.1849 50.7864 63.4099 53.8933 63.6225Z" fill="#3849FF"/>
<path d="M23.5324 101.713C23.2363 97.051 19.2169 93.5119 14.5551 93.8081C9.89316 94.1042 6.35405 98.1236 6.65024 102.785C6.94642 107.447 10.9657 110.986 15.6276 110.69C20.2895 110.394 23.8286 106.375 23.5324 101.713Z" fill="#3849FF"/>
</svg>
